<?xml version="1.0" encoding="UTF-8"?>
<svg id="Layer_78" data-name="Layer 78" xmlns="http://www.w3.org/2000/svg" xmlns:xlink="http://www.w3.org/1999/xlink" viewBox="0 0 508.62 230.7">
  <defs>
    <style>
      .cls-1 {
        stroke-width: 1.53px;
      }

      .cls-1, .cls-2, .cls-3, .cls-4, .cls-5, .cls-6, .cls-7 {
        fill: none;
      }

      .cls-1, .cls-3, .cls-8, .cls-4, .cls-5, .cls-6, .cls-7 {
        stroke: #570060;
      }

      .cls-1, .cls-3, .cls-4 {
        stroke-linecap: round;
        stroke-linejoin: round;
      }

      .cls-9 {
        clip-path: url(#clippath);
      }

      .cls-2, .cls-10 {
        stroke-width: 0px;
      }

      .cls-11 {
        clip-path: url(#clippath-1);
      }

      .cls-3 {
        stroke-width: 2px;
      }

      .cls-8 {
        fill: #ffebde;
      }

      .cls-8, .cls-5, .cls-6, .cls-7 {
        stroke-miterlimit: 10;
      }

      .cls-4, .cls-5 {
        stroke-width: 1px;
      }

      .cls-10 {
        fill: #570060;
      }

      .cls-6 {
        stroke-width: .25px;
      }

      .cls-7 {
        stroke-width: .24px;
      }
    </style>
    <clipPath id="clippath">
      <path class="cls-2" d="M481.62,75.94c-27.83,4.63-125.75,22.17-148.49,36.29-10.9,5.84,97.95,36.47,150.11,49.4"/>
    </clipPath>
    <clipPath id="clippath-1">
      <path class="cls-2" d="M175.01,114.14c-12.32,4.88-54.06,22.17-63.44,33.92-7.28,10.97,46.54,22.43,71.08,29.52"/>
    </clipPath>
  </defs>
  <path class="cls-8" d="M505.15,64.65c-43.73,5.52-122.23,19.93-137.99,13.31-4.2-1.77-11.22-1.93-9.51-6.15.43-1.07,1.3-1.9,2.33-2.42,6.34-3.19,12.8-6.16,19.36-8.89-1.91-5.54-8.61-7.09-13.42-10.44-36.14-25.26-69.75-36.43-111.87-43.86-31.87-5.62-53.72-7.21-86.54-3.69-20.5,2.2-40.61,7.37-59.51,15.61-20.41,8.9-41.87,21.13-58.54,35.91-11.76,10.43-30.57,32.94-38.53,46.5-7.96,13.56-18.6,23.91,1.33,34.54-25.24,3.99,29.22,37.57,74.4,57.13,19.97,8.64,33.98,28.01,92.33,37.86-7.52-6.54-19.51-9.83-28.1-15.6-2.05-1.38-.92-4.58,1.53-4.37,32.79,2.78,69.59,5.71,101.84,5.2,25.91-.41,52.79-2.84,76.85-12.47,30.14-12.06,46.21-18.37,60.97-36.79,1.19-1.49.55-3.72-1.24-4.37-4.72-1.72-6.6-2.6-11.9-6.67,44.51,3.99,93.66,11.29,128.87,17.27-8.27-3.23-16.29-18.78-18-27.49-2.12-10.77-4.24-21.53-6.35-32.3-1.15-5.85-2.22-12.28.69-17.49,7.3-10.71,11.04-22.36,21-30.33Z"/>
  <path class="cls-4" d="M358.02,70.96c-29.94-17.93-60.17-28.65-91.99-42.99-74.08-33.4-153.46,6.46-166.75-5.83"/>
  <path class="cls-4" d="M378.61,154.99c-25.7,8.89-48.39,20.48-72.62,32.84-24.23,12.35-50.05,23.1-77.22,24.25-11.14.47-10.92,2.48-26.19,1.82"/>
  <path class="cls-4" d="M497.39,72.19c-30.77,5.08-139.04,24.35-164.19,39.85-12.06,6.42,109.51,40.41,167.18,54.61"/>
  <path class="cls-4" d="M128.31,135.1c6.7-4.22,13.42-8.45,20.56-11.87,17.1-8.21,36.48-11.62,55.36-9.74-1.6,2.36-4.08,4.12-6.83,4.84,1.8,2.94,3.59,5.89,5.39,8.83-4.76.09-9.33,3.22-11.14,7.63-1.11,2.71-1.23,5.75-2.32,8.47-1.66,4.17-5.45,7.27-6.87,11.53-2.75,8.24,4.22,16.33,10.83,21.96-28.34,2.89-54.8-14.48-83.12-17.56,1.32-1.44,1.94-3.49,1.63-5.41-1.01-.02-2.02-.04-3.03-.05,2.01-.73,3.13-3.27,2.33-5.25-1.2-.03-2.19.05-3.28-.31,6.44-4.79,13.67-8.77,20.48-13.06Z"/>
  <path class="cls-4" d="M171.01,64.31c1.91,8.56,9.2,14.94,16.96,19.03,13.29,7.01,28.61,9.02,43.6,10.03,15.27,1.03,30.61,1.14,45.88.19,3.82-.24,7.8-.59,11.06-2.6s5.5-6.2,4.06-9.75c-.84-2.05-2.69-3.49-4.48-4.79-19.93-14.42-43.02-24.4-67.12-29.27-14.15-2.86-56.31-11.43-49.95,17.16Z"/>
  <ellipse class="cls-4" cx="69.39" cy="73.29" rx="5.98" ry="7.97"/>
  <ellipse class="cls-3" cx="69.39" cy="73.29" rx="3.16" ry="4.21"/>
  <ellipse class="cls-1" cx="74.03" cy="73.29" rx="11.79" ry="9.53"/>
  <path class="cls-4" d="M367.98,159.14c3.26-1.39,6.56,3.48,5.39,6.83s-4.62,5.25-7.79,6.84c-17.45,8.76-34.89,17.52-52.34,26.29-6.58,3.3-13.18,6.62-20.13,9.04-22.28,7.75-46.61,5.88-70.12,3.92"/>
  <path class="cls-4" d="M333.77,57.57c5.04-.08,16.03.63,20.7-1.29,1.38-.57,2.86-1.35,3.35-2.76.87-2.5-1.83-4.7-4.16-5.95C302.85,20.16,264.35,7.19,189.62.88"/>
  <path class="cls-10" d="M332.88,54.47c4.65-2.27,9.53-3.9,14.61-4.87-4.65,2.28-9.53,3.9-14.61,4.87h0Z"/>
  <path class="cls-10" d="M359.15,162.59c4.34.65,8.49,1.95,12.42,3.9-4.34-.64-8.49-1.95-12.42-3.9h0Z"/>
  <path class="cls-10" d="M352.95,166.14c4.34.65,8.49,1.95,12.42,3.9-4.34-.64-8.49-1.95-12.42-3.9h0Z"/>
  <path class="cls-10" d="M346.3,170.12c4.34.65,8.49,1.95,12.42,3.9-4.34-.64-8.49-1.95-12.42-3.9h0Z"/>
  <path class="cls-10" d="M337.89,173.67c4.34.65,8.49,1.95,12.42,3.9-4.34-.64-8.49-1.95-12.42-3.9h0Z"/>
  <path class="cls-10" d="M330.59,176.15c4.25,1.08,8.25,2.8,11.96,5.14-4.25-1.08-8.25-2.8-11.96-5.14h0Z"/>
  <path class="cls-10" d="M324.83,180.13c4.25,1.08,8.25,2.8,11.96,5.14-4.25-1.08-8.25-2.8-11.96-5.14h0Z"/>
  <path class="cls-10" d="M318.19,183.67c4.25,1.08,8.25,2.8,11.96,5.14-4.25-1.08-8.25-2.8-11.96-5.14h0Z"/>
  <path class="cls-10" d="M311.55,186.77c4.25,1.08,8.25,2.8,11.96,5.14-4.25-1.08-8.25-2.8-11.96-5.14h0Z"/>
  <path class="cls-10" d="M305.35,189.87c4.25,1.08,8.25,2.8,11.96,5.14-4.25-1.08-8.25-2.8-11.96-5.14h0Z"/>
  <path class="cls-10" d="M298.47,193.42c4.16,1.4,8.02,3.4,11.55,6.02-4.16-1.39-8.02-3.41-11.55-6.02h0Z"/>
  <path class="cls-10" d="M292.45,195.55c3.8,1.91,7.21,4.38,10.2,7.41-3.8-1.91-7.21-4.39-10.2-7.41h0Z"/>
  <path class="cls-10" d="M286.83,198.02c3.28,1.61,6.17,3.77,8.62,6.48-3.28-1.61-6.16-3.78-8.62-6.48h0Z"/>
  <path class="cls-10" d="M280.86,201.34c3.28,1.61,6.17,3.77,8.62,6.48-3.28-1.61-6.16-3.78-8.62-6.48h0Z"/>
  <path class="cls-10" d="M273.88,203c3.45,1.89,6.49,4.33,9.08,7.29-3.45-1.89-6.49-4.33-9.08-7.29h0Z"/>
  <path class="cls-10" d="M266.24,205.66c3.2,1.42,6.02,3.41,8.43,5.96-3.2-1.42-6.02-3.42-8.43-5.96h0Z"/>
  <path class="cls-10" d="M260.6,207.65c2.55.83,4.76,2.25,6.57,4.23-2.56-.83-4.75-2.25-6.57-4.23h0Z"/>
  <path class="cls-10" d="M253.29,208.98c2.37.56,4.42,1.72,6.11,3.48-2.37-.56-4.42-1.73-6.11-3.48h0Z"/>
  <path class="cls-10" d="M326.68,51.81c4.65-2.27,9.53-3.9,14.61-4.87-4.65,2.28-9.53,3.9-14.61,4.87h0Z"/>
  <path class="cls-10" d="M320.93,49.15c4.65-2.27,9.53-3.9,14.61-4.87-4.65,2.28-9.53,3.9-14.61,4.87h0Z"/>
  <path class="cls-10" d="M314.28,46.05c4.65-2.27,9.53-3.9,14.61-4.87-4.65,2.28-9.53,3.9-14.61,4.87h0Z"/>
  <path class="cls-10" d="M307.64,42.51c4.65-2.27,9.53-3.9,14.61-4.87-4.65,2.28-9.53,3.9-14.61,4.87h0Z"/>
  <path class="cls-10" d="M300.11,38.97c4.65-2.27,9.53-3.9,14.61-4.87-4.65,2.28-9.53,3.9-14.61,4.87h0Z"/>
  <path class="cls-10" d="M293.91,36.31c4.65-2.27,9.53-3.9,14.61-4.87-4.65,2.28-9.53,3.9-14.61,4.87h0Z"/>
  <path class="cls-10" d="M287.27,33.65c4.65-2.27,9.53-3.9,14.61-4.87-4.65,2.28-9.53,3.9-14.61,4.87h0Z"/>
  <path class="cls-10" d="M281.51,31c4.65-2.27,9.53-3.9,14.61-4.87-4.65,2.28-9.53,3.9-14.61,4.87h0Z"/>
  <path class="cls-10" d="M108.58,202.82c16.85,6.22,33.57,13.12,49.92,20.58-16.86-6.23-33.57-13.12-49.92-20.58h0Z"/>
  <path class="cls-10" d="M126.91,207.39c12.97,4.7,25.78,10.06,38.23,16.02-12.97-4.7-25.79-10.06-38.23-16.02h0Z"/>
  <path class="cls-10" d="M136.21,208.05c3.9.95,7.55,2.52,10.9,4.73-3.9-.94-7.54-2.53-10.9-4.73h0Z"/>
  <path class="cls-10" d="M275.31,28.34c4.65-2.27,9.53-3.9,14.61-4.87-4.65,2.28-9.53,3.9-14.61,4.87h0Z"/>
  <path class="cls-10" d="M267.34,26.12c4.65-2.27,9.53-3.9,14.61-4.87-4.65,2.28-9.53,3.9-14.61,4.87h0Z"/>
  <path class="cls-10" d="M259.81,23.47c4.65-2.27,9.53-3.9,14.61-4.87-4.65,2.28-9.53,3.9-14.61,4.87h0Z"/>
  <path class="cls-10" d="M251.84,21.25c4.65-2.27,9.53-3.9,14.61-4.87-4.65,2.28-9.53,3.9-14.61,4.87h0Z"/>
  <path class="cls-10" d="M243.66,17.83c4.86-1.78,9.88-2.9,15.04-3.35-4.86,1.79-9.88,2.9-15.04,3.35h0Z"/>
  <path class="cls-10" d="M234.36,16.06c4.86-1.78,9.88-2.9,15.04-3.35-4.86,1.79-9.88,2.9-15.04,3.35h0Z"/>
  <path class="cls-10" d="M225.06,13.85c4.86-1.78,9.88-2.9,15.04-3.35-4.86,1.79-9.88,2.9-15.04,3.35h0Z"/>
  <path class="cls-10" d="M214.87,12.52c4.86-1.78,9.88-2.9,15.04-3.35-4.86,1.79-9.88,2.9-15.04,3.35h0Z"/>
  <path class="cls-10" d="M204.25,11.19c4.86-1.78,9.88-2.9,15.04-3.35-4.86,1.79-9.88,2.9-15.04,3.35h0Z"/>
  <path class="cls-10" d="M193.06,10.28c6.12-2.06,12.4-3.47,18.82-4.19-6.12,2.07-12.4,3.46-18.82,4.19h0Z"/>
  <path class="cls-10" d="M174.69,10.53c9.48-2.81,19.2-4.97,28.98-6.45-9.48,2.81-19.2,4.97-28.98,6.45h0Z"/>
  <path class="cls-10" d="M160.73,12.84c7.27-3.76,14.8-6.89,22.59-9.38-7.26,3.76-14.8,6.88-22.59,9.38h0Z"/>
  <path class="cls-10" d="M146.44,15.16c6.16-4.35,12.68-8.11,19.53-11.26-6.16,4.35-12.68,8.1-19.53,11.26h0Z"/>
  <path class="cls-10" d="M134.16,16.82c4.3-3.94,9.01-7.34,14.11-10.16-4.3,3.94-9.01,7.33-14.11,10.16h0Z"/>
  <path class="cls-10" d="M123.07,21.31c3.9-4.16,8.25-7.81,13.04-10.92-3.9,4.17-8.25,7.81-13.04,10.92h0Z"/>
  <path class="cls-10" d="M111.11,23.64c3.9-4.16,8.25-7.81,13.04-10.92-3.9,4.17-8.25,7.81-13.04,10.92h0Z"/>
  <path class="cls-4" d="M152.71,210c-8.04-1.15-16.08-2.31-24.12-3.46-2.88-.41-5.78-.83-8.52-1.81-3.09-1.11-5.89-2.9-8.9-4.2-4.81-2.08-10.06-2.88-15.25-3.67"/>
  <circle class="cls-6" cx="43.81" cy="78.82" r="1.22"/>
  <circle class="cls-6" cx="46.36" cy="84.25" r="1.22"/>
  <circle class="cls-6" cx="41.49" cy="88.68" r="1.22"/>
  <circle class="cls-6" cx="37.06" cy="93.44" r="1.22"/>
  <circle class="cls-6" cx="32.96" cy="100.3" r="1.22"/>
  <circle class="cls-6" cx="50.46" cy="84.25" r="1.22"/>
  <circle class="cls-6" cx="52.34" cy="87.79" r="1.22"/>
  <circle class="cls-6" cx="48.69" cy="89.56" r="1.22"/>
  <circle class="cls-6" cx="55.44" cy="90.83" r="1.22"/>
  <circle class="cls-6" cx="52.12" cy="92.66" r="1.22"/>
  <circle class="cls-6" cx="53.45" cy="96.15" r="1.22"/>
  <circle class="cls-6" cx="59.87" cy="94.43" r="1.22"/>
  <circle class="cls-6" cx="59.65" cy="104.84" r="1.22"/>
  <circle class="cls-6" cx="62.64" cy="99.86" r="1.22"/>
  <circle class="cls-6" cx="64.19" cy="106.17" r="1.22"/>
  <circle class="cls-6" cx="67.17" cy="104.06" r="1.22"/>
  <circle class="cls-6" cx="68.95" cy="99.42" r="1.22"/>
  <circle class="cls-6" cx="73.04" cy="100.85" r="1.22"/>
  <circle class="cls-6" cx="77.69" cy="96.43" r="1.22"/>
  <circle class="cls-6" cx="53.11" cy="105.84" r="1.22"/>
  <circle class="cls-6" cx="53.22" cy="113.03" r="1.22"/>
  <circle class="cls-6" cx="62.41" cy="112.59" r="1.22"/>
  <circle class="cls-6" cx="41.71" cy="109.38" r="1.22"/>
  <circle class="cls-6" cx="33.07" cy="106.06" r="1.22"/>
  <circle class="cls-6" cx="26.76" cy="109.82" r="1.22"/>
  <circle class="cls-6" cx="35.73" cy="114.25" r="1.22"/>
  <circle class="cls-6" cx="38.94" cy="115.58" r="1.22"/>
  <circle class="cls-6" cx="36.29" cy="122.11" r="1.22"/>
  <circle class="cls-6" cx="42.26" cy="117.46" r="1.22"/>
  <circle class="cls-6" cx="48.69" cy="122.55" r="1.22"/>
  <circle class="cls-6" cx="25.99" cy="121.45" r="1.22"/>
  <circle class="cls-6" cx="29.64" cy="129.09" r="1.22"/>
  <circle class="cls-6" cx="37.28" cy="126.43" r="1.22"/>
  <circle class="cls-6" cx="20.79" cy="125.99" r="1.22"/>
  <circle class="cls-6" cx="45.81" cy="96.15" r="1.22"/>
  <circle class="cls-6" cx="40.82" cy="81.26" r=".73"/>
  <circle class="cls-6" cx="44.08" cy="93.38" r=".73"/>
  <circle class="cls-6" cx="41.09" cy="102.07" r=".73"/>
  <circle class="cls-6" cx="24.04" cy="118.24" r=".73"/>
  <circle class="cls-6" cx="27.58" cy="135.73" r=".73"/>
  <circle class="cls-6" cx="22.38" cy="129.31" r=".73"/>
  <circle class="cls-6" cx="31.45" cy="117.9" r=".73"/>
  <circle class="cls-6" cx="47.62" cy="109.82" r=".73"/>
  <circle class="cls-6" cx="49.72" cy="105.5" r=".73"/>
  <circle class="cls-6" cx="48.06" cy="104.18" r=".73"/>
  <circle class="cls-6" cx="57.03" cy="99.08" r=".73"/>
  <circle class="cls-6" cx="51.56" cy="74.1" r=".73"/>
  <g class="cls-9">
    <path class="cls-10" d="M323.14,114.8c51.84-13.37,110.23-27.42,162.48-39.07-51.83,13.38-110.23,27.41-162.48,39.07h0Z"/>
    <path class="cls-10" d="M323.71,114.79c52.78-9.21,112.16-18.56,165.22-26.01-52.78,9.21-112.16,18.56-165.22,26.01h0Z"/>
    <path class="cls-10" d="M322.74,115c53.87-4.36,114.38-8.27,168.37-10.86-53.87,4.37-114.38,8.27-168.37,10.86h0Z"/>
    <path class="cls-10" d="M321.76,115.03c54.39.23,115.39,1.48,169.74,3.49-54.39-.23-115.39-1.49-169.74-3.49h0Z"/>
    <path class="cls-10" d="M321.68,114.97c53.9,6.42,114.25,14.61,167.91,22.79-53.9-6.42-114.25-14.62-167.91-22.79h0Z"/>
    <path class="cls-10" d="M322.37,115.08c52.49,11.73,111.16,25.84,163.24,39.3-52.49-11.72-111.16-25.85-163.24-39.3h0Z"/>
  </g>
  <g class="cls-11">
    <path class="cls-10" d="M106.85,150.44c22.55-12.47,48.12-25.96,71.15-37.52-22.54,12.48-48.12,25.96-71.15,37.52h0Z"/>
    <path class="cls-10" d="M107.11,150.4c23.28-9.4,49.61-19.42,73.26-27.85-23.28,9.41-49.61,19.41-73.26,27.85h0Z"/>
    <path class="cls-10" d="M106.68,150.6c24.13-5.83,51.35-11.81,75.7-16.62-24.13,5.83-51.35,11.8-75.7,16.62h0Z"/>
    <path class="cls-10" d="M106.24,150.67c24.71-2.41,52.49-4.53,77.29-5.9-24.71,2.41-52.49,4.53-77.29,5.9h0Z"/>
    <path class="cls-10" d="M106.2,150.63c24.96,2.27,52.9,5.39,77.74,8.69-24.96-2.26-52.9-5.39-77.74-8.69h0Z"/>
    <path class="cls-10" d="M106.52,150.69c24.71,6.33,52.29,13.99,76.72,21.32-24.71-6.32-52.29-13.99-76.72-21.32h0Z"/>
  </g>
  <path class="cls-5" d="M369.64,158.98c-17.9-8.16-37.51-11.2-57.14-12.5-21.82-1.45-43.64-2.9-65.47-4.35-11.7-.78-18.94-28.32-30.18-31.65-26.85-7.93-53.21-4.3-59.54-31.57-.72-3.11-1.26-6.28-2.34-9.29-2.51-6.98-8.03-12.83-14.86-15.73-10.81-4.6-23.7,3.12-33.93,8.92-5.19,2.94-10.3,6.27-14.14,10.84-3.76,4.48-6.12,9.93-9.05,14.99-.03.05-.06.1-.09.15-4.19,7.2-13.73,9-20.46,4.1-.98-.71-1.98-1.38-3.01-2.01-5.91-3.61-7.4-11.66-3.15-17.14.03-.04,3.44-6.4,3.47-6.44,23.31-29.91,54.89-40.35,61.74-43.92"/>
  <path class="cls-7" d="M.7,121.62c-.29-5.57,11.18,8.06,11.85,13.55.67,2.33-7.15,5.99-6.83,3.32"/>
  <path class="cls-10" d="M111.95,83.7c.82-4.33,5.14-7.46,9.45-7.52,4.4-.07,8.52,2.6,10.82,6.26,4.77,7.69,2.28,17.36-1.65,24.85-7.78,15.53-21.85,27.74-38.25,33.39,0,0,.01-.14.01-.14,4.09,2.3,6.1,7.18,5.85,11.74-.2,4.41-2.8,9.54-7.55,10.25,7.2-1.43,9.02-11.07,6.13-16.89-.95-2.07-2.53-3.84-4.51-4.96,0,0-.15-.08-.15-.08l.16-.06c16.37-5.67,30.28-17.93,38.1-33.35,3.93-7.44,6.44-17.03,1.72-24.67-2.26-3.63-6.34-6.27-10.69-6.24-4.29.03-8.6,3.11-9.45,7.42h0Z"/>
</svg>